<?xml version="1.0" encoding="UTF-8"?>
<svg width="75px" height="75px" viewBox="0 0 75 75" version="1.1" xmlns="http://www.w3.org/2000/svg" xmlns:xlink="http://www.w3.org/1999/xlink">
    <!-- Generator: sketchtool 53.1 (72631) - https://sketchapp.com -->
    <title>25F43203-FC1B-4CD0-AFAA-148663253C0D</title>
    <desc>Created with sketchtool.</desc>
    <defs>
        <polygon id="path-1" points="2.29130105e-05 0.0703847895 14.3291456 0.0703847895 14.3291456 12.7659574 2.29130105e-05 12.7659574"></polygon>
        <polygon id="path-3" points="0.0647377524 0.0703847895 14.2972361 0.0703847895 14.2972361 12.7659574 0.0647377524 12.7659574"></polygon>
        <polygon id="path-5" points="0.0323268841 0.0703847895 14.2647606 0.0703847895 14.2647606 12.7659574 0.0323268841 12.7659574"></polygon>
    </defs>
    <g id="Page-1" stroke="none" stroke-width="1" fill="none" fill-rule="evenodd">
        <g id="About-2" transform="translate(-995.000000, -1822.000000)">
            <g id="Values" transform="translate(0.000000, 1526.000000)">
                <g id="Customer-delight" transform="translate(975.000000, 277.000000)">
                    <g id="Customer" transform="translate(20.000000, 19.000000)">
                        <circle id="Oval" fill="#D9A888" cx="37.5" cy="37.5" r="37.5"></circle>
                        <g id="Group-14" transform="translate(14.361702, 11.170213)">
                            <path d="M23.1382979,1.45548941 C26.2952757,1.45548941 28.8636497,4.02384602 28.8636497,7.18080255 C28.8636497,10.3377591 26.2952757,12.9062127 23.1382979,12.9062127 C19.98132,12.9062127 17.4129461,10.3377591 17.4129461,7.18080255 C17.4129461,4.02384602 19.98132,1.45548941 23.1382979,1.45548941 M23.1382979,14.3617021 C27.097838,14.3617021 30.3191489,11.140413 30.3191489,7.18080255 C30.3191489,3.22128916 27.097838,0 23.1382979,0 C19.1787577,0 15.9574468,3.22128916 15.9574468,7.18080255 C15.9574468,11.140413 19.1787577,14.3617021 23.1382979,14.3617021" id="Fill-1" fill="#FFFFFF"></path>
                            <path d="M23.1382979,17.3702458 C28.7290125,17.3702458 33.3193957,21.7678181 33.6812237,27.3106053 L13.9276207,27.3106053 C13.5404619,27.3106053 13.2265848,27.6267897 13.2265848,28.0170048 C13.2265848,28.407314 13.5404619,28.7234043 13.9276207,28.7234043 L34.4053471,28.7234043 C34.7925058,28.7234043 35.106383,28.407314 35.106383,28.0170048 C35.106383,21.3673367 29.7375695,15.9574468 23.1382979,15.9574468 C16.5390262,15.9574468 11.1702128,21.3673367 11.1702128,28.0170048 C11.1702128,28.407314 11.4840899,28.7234043 11.8712487,28.7234043 L14.6753923,28.7234043 C15.0625511,28.7234043 15.3764282,28.407314 15.3764282,28.0170048 C15.3764282,27.6267897 15.0625511,27.3106053 14.6753923,27.3106053 L12.5952786,27.3106053 C12.9572,21.7678181 17.5476767,17.3702458 23.1382979,17.3702458" id="Fill-3" fill="#FFFFFF"></path>
                            <g id="Group-7" transform="translate(0.000000, 33.510638)">
                                <mask id="mask-2" fill="white">
                                    <use xlink:href="#path-1"></use>
                                </mask>
                                <g id="Clip-6"></g>
                                <path d="M9.96257599,7.5408239 C9.8016663,7.69274785 9.72682914,7.90587596 9.76073057,8.11655953 L10.2078973,10.8981802 L7.49138624,9.64449072 C7.28573057,9.54951562 7.0438287,9.54951562 6.83807534,9.64449072 L4.12146657,10.8981802 L4.5686333,8.11655953 C4.60253474,7.90587596 4.52779527,7.69265731 4.36678789,7.5408239 L2.24066978,5.53394296 L5.23357034,5.06839294 C5.46023122,5.03308284 5.65592162,4.90134903 5.76212006,4.71248529 L7.16468194,2.21850611 L8.56724381,4.71248529 C8.67344225,4.90134903 8.86913265,5.03308284 9.09579353,5.06839294 L12.0886941,5.53394296 L9.96257599,7.5408239 Z M13.7178191,4.41026709 L9.69820343,3.78509733 L7.81447568,0.435617927 C7.68824902,0.211172476 7.43784737,0.0703847895 7.16468194,0.0703847895 C6.8915165,0.0703847895 6.64111485,0.211172476 6.51488819,0.435617927 L4.63116044,3.78509733 L0.611544724,4.41026709 C0.342189535,4.45218651 0.120315892,4.62937076 0.0359042553,4.87011317 C-0.0485073817,5.11076505 0.0186115936,5.37504753 0.209905558,5.55558171 L3.06534412,8.25091897 L2.46479049,11.986727 C2.42453865,12.2372476 2.53786908,12.4874966 2.75886344,12.6362517 C2.9796624,12.7850973 3.27168367,12.8075509 3.51612571,12.6947397 L7.16458424,11.0109914 L10.8130428,12.6947397 C10.9164079,12.7423631 11.0282729,12.7659031 11.1395517,12.7659031 C11.2916685,12.7659031 11.4428083,12.7220824 11.570305,12.6361612 C11.7912994,12.4874061 11.9046298,12.2371571 11.864378,11.9866365 L11.2638244,8.25082843 L14.1192629,5.55549117 C14.3105569,5.37495699 14.3776759,5.11067451 14.2932642,4.87002263 C14.209048,4.62937076 13.9871743,4.45218651 13.7178191,4.41026709 L13.7178191,4.41026709 Z" id="Fill-5" fill="#FFFFFF" mask="url(#mask-2)"></path>
                            </g>
                            <g id="Group-10" transform="translate(15.957447, 33.510638)">
                                <mask id="mask-4" fill="white">
                                    <use xlink:href="#path-3"></use>
                                </mask>
                                <g id="Clip-9"></g>
                                <path d="M9.95997628,7.5408239 C9.80015382,7.69274785 9.72582231,7.90587596 9.75949468,8.11655953 L10.203543,10.8981802 L7.50538672,9.64449072 C7.40320515,9.59704844 7.29209603,9.5733273 7.18098692,9.5733273 C7.0698778,9.5733273 6.95867165,9.59704844 6.85658712,9.64449072 L4.15843085,10.8981802 L4.60247915,8.11655953 C4.63615152,7.90587596 4.56191705,7.69265731 4.40199756,7.5408239 L2.29024511,5.53394296 L5.26292338,5.06839294 C5.48805276,5.03308284 5.68242093,4.90134903 5.78790181,4.71248529 L7.18098692,2.21859665 L8.57407202,4.71257583 C8.6795529,4.90143957 8.87392108,5.03317338 9.09905046,5.06848348 L12.0717287,5.5340335 L9.95997628,7.5408239 Z M13.6898462,4.41026709 L9.69739002,3.78509733 L7.82639017,0.435617927 C7.70101639,0.211172476 7.45230664,0.0703847895 7.18098692,0.0703847895 C6.90966719,0.0703847895 6.66095745,0.211172476 6.53558367,0.435617927 L4.66458381,3.78509733 L0.67212766,4.41026709 C0.404592438,4.45218651 0.184217941,4.62937076 0.100376653,4.87011317 C0.0165353652,5.11076505 0.0832008338,5.37504753 0.273202271,5.55558171 L3.10934733,8.25091897 L2.51294853,11.986727 C2.47296866,12.2372476 2.58553335,12.4874966 2.8050345,12.6362517 C3.02434158,12.7850973 3.31438974,12.8075509 3.55718013,12.6947397 L7.18098692,11.0109914 L10.8047937,12.6947397 C10.9074605,12.7423631 11.0185696,12.7659031 11.1290965,12.7659031 C11.2801855,12.7659031 11.4303041,12.7220824 11.5569393,12.6361612 C11.7764405,12.4874061 11.8890052,12.2371571 11.8490253,11.9866365 L11.2526265,8.25082843 L14.0887716,5.55549117 C14.278773,5.37495699 14.3454385,5.11067451 14.2615972,4.87002263 C14.1777559,4.62937076 13.9573814,4.45218651 13.6898462,4.41026709 L13.6898462,4.41026709 Z" id="Fill-8" fill="#FFFFFF" mask="url(#mask-4)"></path>
                            </g>
                            <g id="Group-13" transform="translate(31.914894, 33.510638)">
                                <mask id="mask-6" fill="white">
                                    <use xlink:href="#path-5"></use>
                                </mask>
                                <g id="Clip-12"></g>
                                <path d="M9.92766245,7.5408239 C9.76783999,7.69274785 9.69350848,7.90587596 9.72718085,8.11655953 L10.1713262,10.8981802 L7.47307289,9.64449072 C7.37089132,9.59704844 7.2597822,9.5733273 7.14867309,9.5733273 C7.03746694,9.5733273 6.92635782,9.59704844 6.82427329,9.64449072 L4.12611702,10.8981802 L4.57026236,8.11655953 C4.60393473,7.90587596 4.52970026,7.69265731 4.36978076,7.5408239 L2.25802832,5.53394296 L5.23070658,5.06839294 C5.45583597,5.03308284 5.65020414,4.90134903 5.75568502,4.71248529 L7.14877013,2.21850611 L8.54185523,4.71248529 C8.64733611,4.90134903 8.84170428,5.03308284 9.06683367,5.06839294 L12.0395119,5.53394296 L9.92766245,7.5408239 Z M14.2291863,4.87011317 C14.145345,4.62937076 13.9250676,4.45218651 13.6574353,4.41026709 L9.66497915,3.78509733 L7.7939793,0.435527388 C7.66860552,0.211172476 7.41989577,0.0703847895 7.14857605,0.0703847895 C6.87725633,0.0703847895 6.62854658,0.211172476 6.5031728,0.435527388 L4.63217294,3.78509733 L0.639716791,4.41026709 C0.37218157,4.45218651 0.151807073,4.62937076 0.0679657849,4.87011317 C-0.0158755032,5.11076505 0.0507899655,5.37504753 0.240791403,5.55558171 L3.07693646,8.25091897 L2.48044063,11.986727 C2.44046075,12.2372476 2.55302545,12.4874966 2.7725266,12.6362517 C2.99183367,12.7850973 3.28188183,12.8075509 3.52467223,12.6947397 L7.14847901,11.0109914 L10.7722858,12.6947397 C10.8749526,12.7423631 10.9860617,12.7659031 11.0965886,12.7659031 C11.2476775,12.7659031 11.3977961,12.7220824 11.5244314,12.6361612 C11.7439326,12.4874061 11.8564973,12.2371571 11.8165174,11.9866365 L11.2200216,8.25082843 L14.0561666,5.55549117 C14.2463621,5.37504753 14.3130276,5.11076505 14.2291863,4.87011317 L14.2291863,4.87011317 Z" id="Fill-11" fill="#FFFFFF" mask="url(#mask-6)"></path>
                            </g>
                        </g>
                    </g>
                </g>
            </g>
        </g>
    </g>
</svg>