<?xml version="1.0" encoding="UTF-8"?>
<svg width="75px" height="75px" viewBox="0 0 75 75" version="1.1" xmlns="http://www.w3.org/2000/svg" xmlns:xlink="http://www.w3.org/1999/xlink">
    <!-- Generator: sketchtool 53.1 (72631) - https://sketchapp.com -->
    <title>C07DBAE3-38F6-4039-B273-541719ADF57B</title>
    <desc>Created with sketchtool.</desc>
    <defs>
        <polygon id="path-1" points="0 0 39.893617 0 39.893617 38.2978723 0 38.2978723"></polygon>
    </defs>
    <g id="Page-1" stroke="none" stroke-width="1" fill="none" fill-rule="evenodd">
        <g id="About-2" transform="translate(-410.000000, -1822.000000)">
            <g id="Values" transform="translate(0.000000, 1526.000000)">
                <g id="Connection" transform="translate(390.000000, 277.000000)">
                    <g transform="translate(20.000000, 19.000000)">
                        <circle id="Oval" fill="#A0D1C6" cx="37.5" cy="37.5" r="37.5"></circle>
                        <g id="Group-3" transform="translate(17.553191, 19.148936)">
                            <mask id="mask-2" fill="white">
                                <use xlink:href="#path-1"></use>
                            </mask>
                            <g id="Clip-2"></g>
                            <path d="M20.6729365,2.02493257 C19.5389134,2.02493257 18.6162821,3.00007192 18.6162821,4.1986335 C18.6162821,5.39730297 19.5389134,6.37244231 20.6729365,6.37244231 C21.8069595,6.37244231 22.7295909,5.39730297 22.7295909,4.1986335 C22.7295909,3.00007192 21.8069595,2.02493257 20.6729365,2.02493257 M35.9168192,10.3728978 C35.5820222,10.3728978 35.2472251,10.4622236 34.9484595,10.6312736 C34.4638203,10.9055079 34.1095274,11.3626011 33.950703,11.91819 C33.7914702,12.4741025 33.8466913,13.0621636 34.106057,13.5739527 C34.3654226,14.0859574 34.7979029,14.4605214 35.3235751,14.6283848 C35.5189415,14.6909559 35.720228,14.7225652 35.9219229,14.7225652 C36.2566179,14.7225652 36.5913129,14.6332394 36.8899764,14.4641894 C37.3745135,14.189955 37.7289084,13.732754 37.8876308,13.1769494 C38.0468636,12.620929 37.9917446,12.0330836 37.7323789,11.5214025 C37.4728091,11.0092898 37.040533,10.6348337 36.5147587,10.4669703 C36.3192902,10.404507 36.1181058,10.3728978 35.9168192,10.3728978 M3.97472786,14.2465927 C3.04638046,14.2465927 2.22959807,14.9080132 1.98819713,15.8551034 C1.84529593,16.4158705 1.91756311,17.001774 2.19162718,17.5049326 C2.46569126,18.008199 2.90868496,18.3685226 3.43905253,18.5195565 C3.61400442,18.5693977 3.79395785,18.5946419 3.97370714,18.5946419 C4.90185039,18.5946419 5.71863279,17.9332215 5.95993166,16.9861313 C6.10293492,16.4253641 6.03087189,15.8395685 5.75690989,15.3363021 C5.48274374,14.8330357 5.03964797,14.472712 4.5092804,14.3215703 C4.33432851,14.271837 4.15447715,14.2465927 3.97472786,14.2465927 M20.6729365,14.3837099 C17.129089,14.3837099 14.2460574,17.4308181 14.2460574,21.1761343 C14.2460574,24.9215583 17.129089,27.9686665 20.6729365,27.9686665 C24.2166819,27.9686665 27.0997135,24.9215583 27.0997135,21.1761343 C27.0997135,17.4308181 24.2166819,14.3837099 20.6729365,14.3837099 M8.44396269,31.9283428 C7.89389517,31.9283428 7.37730735,32.1541384 6.98953476,32.5639796 C6.18775699,33.4116032 6.18775699,34.7907582 6.98953476,35.6382739 C7.3775115,36.048223 7.89409931,36.2740186 8.44406476,36.2740186 C8.99403022,36.2740186 9.51061803,36.048223 9.89828855,35.6382739 C10.7001684,34.7907582 10.7001684,33.4116032 9.89828855,32.5639796 C9.51041389,32.1540306 8.99382607,31.9283428 8.44396269,31.9283428 M32.9020123,31.9283428 C32.3517407,31.9283428 31.8351529,32.1541384 31.4475844,32.5639796 C30.6456025,33.4116032 30.6456025,34.7907582 31.4475844,35.6382739 C31.835357,36.048223 32.3519448,36.2740186 32.9020123,36.2740186 C33.4519778,36.2740186 33.9684635,36.048223 34.3562361,35.6382739 C35.1580139,34.7906503 35.1580139,33.4114954 34.3562361,32.5639796 C33.9685656,32.1541384 33.4519778,31.9283428 32.9020123,31.9283428 M32.9022165,38.2978723 C31.8397461,38.2978723 30.8422958,37.8619239 30.0931873,37.0702907 C28.828818,35.7338568 28.5693502,33.6532574 29.4623806,32.0104405 L29.5012702,31.9388073 L25.852084,28.0819419 L25.7810417,28.1403057 C24.304362,29.3528918 22.5381033,29.9938148 20.6730386,29.9938148 C18.8079738,29.9938148 17.0418172,29.3528918 15.5651375,28.1403057 L15.4940952,28.0819419 L11.844807,31.9388073 L11.8837986,32.0104405 C12.776931,33.6529338 12.5175654,35.7335331 11.2529919,37.0702907 C10.5038834,37.8619239 9.50633099,38.2978723 8.44396269,38.2978723 C7.38169646,38.2978723 6.38424613,37.8619239 5.63513766,37.0702907 C4.08639494,35.4331915 4.08639494,32.7694936 5.63513766,31.1326101 C6.38240883,30.3429188 7.37781772,29.9080491 8.43794043,29.9080491 C9.13529825,29.9080491 9.82142813,30.100941 10.4225318,30.4660114 L10.4903078,30.5071142 L14.139596,26.6501408 L14.0843749,26.5749476 C12.9370824,25.0144441 12.330671,23.1475577 12.330671,21.17635 C12.330671,20.7850644 12.3576181,20.3789991 12.4107978,19.9694816 L12.4230464,19.8754091 L7.44549164,18.4577405 L7.40619381,18.5293737 C7.05792319,19.1650105 6.55623792,19.6941684 5.95544048,20.0595625 C5.35147879,20.4267905 4.66861523,20.6209769 3.98064805,20.6209769 C3.63156085,20.6209769 3.281555,20.5716752 2.94063358,20.474582 C1.91613409,20.1826551 1.06046216,19.4867126 0.531319456,18.5147018 C0.0018705338,17.5427989 -0.137560202,16.4112316 0.138545318,15.3283188 C0.604913571,13.499083 2.18244068,12.2215523 3.97482993,12.2215523 C4.32207983,12.2215523 4.66943181,12.2704225 5.00759727,12.3666527 C6.03209676,12.6584717 6.88776869,13.3546299 7.41701347,14.3265328 C7.76283436,14.9611987 7.94503338,15.6850824 7.94401266,16.4200779 L7.94391059,16.502715 L12.9212612,17.9201678 L12.9554554,17.8323524 C14.0987671,14.8959305 16.654657,12.8261193 19.625777,12.43095 L19.7150902,12.419083 L19.7150902,8.27374288 L19.6396588,8.25216662 C17.9092274,7.75882529 16.7005895,6.09195085 16.7005895,4.1986335 C16.7005895,1.88350015 18.4826695,0 20.6730386,0 C22.8634076,0 24.6453855,1.88339227 24.6453855,4.19841774 C24.6453855,6.09173509 23.4367476,7.75860953 21.7063163,8.25195085 L21.6308848,8.27352712 L21.6308848,12.4192988 L21.7201981,12.4311657 C24.0203969,12.7370093 26.1162471,14.0649206 27.47044,16.0742104 L27.5224969,16.1515613 L32.0702253,13.5778364 L32.0523627,13.497249 C31.8940486,12.7816722 31.9164024,12.0330836 32.1170765,11.3321786 C32.4244161,10.2588672 33.1087087,9.37629008 34.0442012,8.84659275 C34.6212158,8.52003596 35.2678437,8.34731795 35.9138591,8.34731795 C36.3031628,8.34731795 36.6919561,8.40859455 37.0695215,8.52942164 C38.0852428,8.85414444 38.9203982,9.57738088 39.4210627,10.5660054 C39.9220335,11.5549536 40.0288011,12.6906203 39.7216656,13.7639317 C39.414326,14.8373509 38.7299313,15.7199281 37.794643,16.2493018 C37.2173222,16.5759664 36.5706943,16.7485766 35.9247809,16.7485766 C35.5354772,16.7485766 35.1466839,16.6874079 34.7692206,16.5666886 C34.1059549,16.3544861 33.5039326,15.959101 33.0283778,15.4232544 L32.9746878,15.3629488 L28.4300216,17.9349476 L28.4622764,18.0237339 C28.8295325,19.0338268 29.0157123,20.0946239 29.0157123,21.17635 C29.0157123,23.1475577 28.4093009,25.0144441 27.2620084,26.5749476 L27.2067873,26.6501408 L30.8560755,30.5072221 L30.9238515,30.4660114 C31.5248531,30.100941 32.2110851,29.9080491 32.9084429,29.9080491 C33.9685656,29.9080491 34.9638724,30.3429188 35.7110415,31.1326101 C37.2597842,32.7696014 37.2597842,35.4332994 35.7110415,37.0702907 C34.9617289,37.8619239 33.9642786,38.2978723 32.9022165,38.2978723" id="Fill-1" fill="#FFFFFF" mask="url(#mask-2)"></path>
                        </g>
                    </g>
                </g>
            </g>
        </g>
    </g>
</svg>