<?xml version="1.0" encoding="UTF-8"?>
<svg width="75px" height="75px" viewBox="0 0 75 75" version="1.1" xmlns="http://www.w3.org/2000/svg" xmlns:xlink="http://www.w3.org/1999/xlink">
    <!-- Generator: sketchtool 53.1 (72631) - https://sketchapp.com -->
    <title>E1834B6D-F01E-4E21-AC69-F9855470E6D8</title>
    <desc>Created with sketchtool.</desc>
    <defs>
        <polygon id="path-1" points="0 0 31.9148936 0 31.9148936 35.106383 0 35.106383"></polygon>
    </defs>
    <g id="Page-1" stroke="none" stroke-width="1" fill="none" fill-rule="evenodd">
        <g id="About-2" transform="translate(-995.000000, -1678.000000)">
            <g id="Values" transform="translate(0.000000, 1526.000000)">
                <g id="Brain-training-playg" transform="translate(975.000000, 133.000000)">
                    <g id="Brain" transform="translate(20.000000, 19.000000)">
                        <circle id="Oval" fill="#ABC491" cx="37.5" cy="37.5" r="37.5"></circle>
                        <g id="Group-3" transform="translate(22.340426, 20.744681)">
                            <mask id="mask-2" fill="white">
                                <use xlink:href="#path-1"></use>
                            </mask>
                            <g id="Clip-2"></g>
                            <path d="M28.4679557,18.2287314 C29.3208542,19.1891232 29.7890575,20.4153942 29.7867969,21.683483 C29.8340029,24.1592572 28.0351236,26.3077159 25.5285539,26.7688743 C25.0071608,26.8976838 24.6445393,27.356519 24.651188,27.8787264 C24.7074362,30.6692963 22.4271891,32.9779279 19.552413,33.0414291 C18.6582923,33.0366536 17.7826551,32.7936194 17.021243,32.3383981 L17.021243,20.6509425 C17.021243,19.5103724 17.9737395,18.5858614 19.1488353,18.5858614 C20.3239311,18.5858614 21.2764276,19.5103724 21.2764276,20.6509425 L23.40402,20.6509425 C23.4013605,18.3709639 21.4978302,16.5232326 19.1488353,16.5207803 C18.3995239,16.5247814 17.6651056,16.7231582 17.021243,17.0953891 L17.021243,2.76785641 C17.7826551,2.31289323 18.6582923,2.069859 19.552413,2.0650835 C22.0472809,2.11890468 24.1151677,3.95837567 24.3874995,6.3660021 C22.1285284,6.97339408 20.804634,9.24317635 21.4305451,11.4357762 C21.9409013,13.2240074 23.6199706,14.4603456 25.5316123,14.4555701 L25.5316123,12.390489 C24.3565165,12.390489 23.40402,11.465978 23.40402,10.3254079 C23.40402,9.1848378 24.3565165,8.26032681 25.5316123,8.26032681 C28.0768776,8.26032681 29.7867969,10.9298313 29.7867969,13.4230296 C29.7890575,14.6908603 29.3208542,15.9171313 28.4679557,16.877523 C28.1214241,17.265113 28.1214241,17.8410124 28.4679557,18.2287314 L28.4679557,18.2287314 Z M14.8936506,9.29286736 C14.8936506,10.4334375 13.9411542,11.3579485 12.7660583,11.3579485 C11.5909625,11.3579485 10.638466,10.4334375 10.638466,9.29286736 L8.51087366,9.29286736 C8.51353315,11.572846 10.4170634,13.4203191 12.7660583,13.4230296 C13.5153697,13.4187703 14.249788,13.2203935 14.8936506,12.8482917 L14.8936506,32.338269 C14.1322385,32.7934903 13.2566013,33.0365245 12.3624806,33.0413 C9.86747972,32.9874789 7.79972592,31.1480079 7.5273941,28.7401233 C9.78636526,28.1327313 11.1102596,25.8629491 10.4843485,23.6703492 C9.97399231,21.8823762 8.29492304,20.6460379 6.38328133,20.6508134 L6.38328133,22.7158945 C7.55837717,22.7158945 8.51087366,23.6404055 8.51087366,24.7809756 C8.51087366,25.9215457 7.55837717,26.8460567 6.38328133,26.8460567 C3.83801603,26.8460567 2.12809667,24.1762941 2.12809667,21.683354 C2.1258361,20.4152651 2.59403939,19.1889941 3.44693797,18.2286024 C3.79333659,17.8410124 3.79333659,17.2649839 3.44693797,16.877394 C2.59403939,15.9171313 2.1258361,14.6907312 2.12809667,13.4229005 C2.08089072,10.9468683 3.87977003,8.79866764 6.38633974,8.33725108 C6.90773284,8.20844165 7.27035435,7.74986457 7.26370563,7.22765719 C7.20745741,4.43708728 9.48770449,2.12819754 12.3624806,2.06495443 C13.2566013,2.06960087 14.1322385,2.31276417 14.8936506,2.76772735 L14.8936506,9.29286736 Z M31.9143893,13.4230296 C31.9143893,10.2531301 29.885464,6.85400658 26.5376975,6.27978496 C26.2143035,2.75688567 23.1960478,0.0434981684 19.552413,2.39766973e-06 C18.2863626,-0.00103014288 17.0438486,0.331447915 15.9574468,0.962459259 C14.871045,0.331447915 13.6285311,-0.00103014288 12.3624806,2.39766973e-06 C8.60222715,0.0525328982 5.49434666,2.8614304 5.17254832,6.49816729 C2.06386998,7.44681392 -0.0373933969,10.2603579 0.000504341438,13.4230296 C-0.000692429247,14.8951743 0.453282584,16.3338904 1.30378762,17.5531918 C0.453282584,18.772235 -0.000692429247,20.2109511 0.000504341438,21.683354 C0.000504341438,24.8529953 2.02942958,28.2521188 5.37719611,28.8263404 C5.70059014,32.3492397 8.71884581,35.0628854 12.3624806,35.1063811 C13.6285311,35.1072846 14.871045,34.7746775 15.9574468,34.1439243 C17.0438486,34.7746775 18.2863626,35.1072846 19.552413,35.1063811 C23.3126665,35.0535925 26.420547,32.2449531 26.7423453,28.6079581 C29.8510236,27.6593115 31.952287,24.8460257 31.9143893,21.683354 C31.915586,20.2109511 31.461611,18.772235 30.611106,17.5531918 C31.4614781,16.3340195 31.915586,14.8951743 31.9143893,13.4230296 L31.9143893,13.4230296 Z" id="Fill-1" fill="#FFFFFF" mask="url(#mask-2)"></path>
                        </g>
                    </g>
                </g>
            </g>
        </g>
    </g>
</svg>