<?xml version="1.0" encoding="UTF-8"?>
<svg width="75px" height="75px" viewBox="0 0 75 75" version="1.1" xmlns="http://www.w3.org/2000/svg" xmlns:xlink="http://www.w3.org/1999/xlink">
    <!-- Generator: sketchtool 53.1 (72631) - https://sketchapp.com -->
    <title>37A8F70A-B07B-465C-9366-635B801D5B34</title>
    <desc>Created with sketchtool.</desc>
    <g id="Page-1" stroke="none" stroke-width="1" fill="none" fill-rule="evenodd">
        <g id="About-2" transform="translate(-410.000000, -1678.000000)">
            <g id="Values" transform="translate(0.000000, 1526.000000)">
                <g id="Knowledge" transform="translate(390.000000, 133.000000)">
                    <g transform="translate(20.000000, 19.000000)">
                        <circle id="Oval" fill="#A5C7F1" cx="37.5" cy="37.5" r="37.5"></circle>
                        <g id="Group-21" transform="translate(16.000000, 18.000000)" fill="#FFFFFF">
                            <path d="M36.9299555,15.7573617 C36.9082854,14.4226306 36.7071038,13.1048817 36.3320885,11.8411575 C36.2336742,11.5095603 35.9411754,11.2837286 35.6103519,11.2837286 L27.4765974,11.2837286 C27.0591882,11.2837286 26.7206997,11.6389617 26.7206997,12.0770196 C26.7206997,12.5151768 27.0591882,12.8703106 27.4765974,12.8703106 L35.0404005,12.8703106 C35.2753647,13.8179299 35.4022624,14.7956403 35.4183494,15.7842748 C35.4629197,18.540832 34.630467,21.7350499 33.2459478,24.1203851 C31.910068,26.4216044 31.3212854,29.1610803 31.5882343,31.8340182 L32.2450552,38.4136265 L22.4099632,38.4136265 L22.4099632,36.198112 C22.4099632,34.9391548 21.9417381,33.7565672 21.0915898,32.8681368 C20.2461729,31.9847713 19.1252905,31.4990444 17.9330578,31.4990444 C17.9196205,31.4991437 17.9061831,31.499243 17.8926512,31.499243 C16.6848992,31.499243 15.5504849,31.0050748 14.6969299,30.106912 C13.8386435,29.2035851 13.3707023,28.0036182 13.3794082,26.7278775 L13.3971038,24.145312 C13.3985233,23.9338803 13.3196026,23.7306913 13.1776588,23.5806334 C13.0357151,23.4306748 12.8426716,23.346261 12.6412061,23.346261 L10.0378634,23.346261 C10.8177969,21.3420789 12.0216691,17.7663106 12.0216691,15.9979906 C12.0216691,14.9368596 12.150554,13.8873479 12.405201,12.8699134 L21.693999,12.8699134 C22.1114082,12.8699134 22.449802,12.5146803 22.449802,12.0766223 C22.449802,11.6385644 22.1113136,11.2833313 21.693999,11.2833313 L11.8367637,11.2833313 C11.5065079,11.2833313 11.2144824,11.5083686 11.1156895,11.839072 C10.7137049,13.1817479 10.5099683,14.5810306 10.5099683,15.9980899 C10.5099683,17.7305589 8.90846445,22.2636789 8.20423427,23.7947465 C8.09115243,24.0406389 8.10657698,24.3300292 8.24483018,24.5612237 C8.38308338,24.7925175 8.62486087,24.9329423 8.88509105,24.9329423 L11.8799146,24.9329423 L11.8676128,26.7164568 C11.856068,28.4193313 12.4805258,30.0212072 13.6264849,31.2270334 C14.7658199,32.4262058 16.2798864,33.0856265 17.8925565,33.0856265 C17.9059939,33.0855272 17.9193366,33.0854279 17.9328685,33.0854279 C18.7223596,33.0854279 19.4650092,33.4072927 20.0249299,33.9923299 C20.588068,34.5807437 20.8981678,35.3641037 20.8981678,36.1980127 L20.8981678,39.2067189 C20.8981678,39.6447768 21.2366563,40.0000099 21.6539708,40.0000099 L33.0843212,40.0000099 C33.2985616,40.0000099 33.5026767,39.9045727 33.6461345,39.737632 C33.7894031,39.5704927 33.858577,39.347541 33.8362445,39.1239934 L33.0917969,31.6684679 C32.8592931,29.3393423 33.3725616,26.951723 34.537068,24.9455548 C36.0852957,22.2784761 36.9798251,18.8434306 36.9299555,15.7573617" id="Fill-1"></path>
                            <path d="M29.7608189,4.8 C29.370604,4.8 29.0532062,4.51454587 29.0532062,4.163715 L29.0532062,3.70279991 C29.0532062,3.3520601 29.370604,3.06660596 29.7608189,3.06660596 C30.3109481,3.06660596 30.758485,2.66414751 30.758485,2.1694514 C30.758485,1.6749374 30.3109481,1.27257 29.7608189,1.27257 C29.2106898,1.27257 28.7631528,1.6749374 28.7631528,2.1694514 C28.7631528,2.52028227 28.445755,2.8057364 28.0554388,2.8057364 C27.6652239,2.8057364 27.3478261,2.52028227 27.3478261,2.1694514 C27.3478261,0.973275666 28.4302599,0 29.7609202,0 C30.4043242,0 31.0100537,0.225995903 31.4664016,0.636193945 C31.9227495,1.04639199 32.173913,1.59089461 32.173913,2.16936035 C32.173913,3.10575916 31.5093424,3.93334851 30.5201835,4.22900068 L30.4650896,4.24539039 L30.4530378,4.29647166 C30.3841703,4.58829957 30.0930029,4.8 29.7608189,4.8" id="Fill-4"></path>
                            <path d="M29.7608696,8 C29.549193,8 29.3418904,7.91460256 29.192255,7.7655577 C29.0423894,7.61662732 28.9565217,7.41057452 28.9565217,7.20005724 C28.9565217,6.98988338 29.0425045,6.78325821 29.1924853,6.63329756 C29.34143,6.48516849 29.5487326,6.4 29.7608696,6.4 C29.9731216,6.4 30.1804242,6.48516849 30.3294841,6.63341203 C30.4792346,6.78314374 30.5652174,6.98976891 30.5652174,7.20005724 C30.5652174,7.41046004 30.4793497,7.61651284 30.3294841,7.7655577 C30.179043,7.91448809 29.9716253,8 29.7608696,8" id="Fill-6"></path>
                            <path d="M4.72953775,3.23122732 C4.62507717,3.33512325 4.60960491,3.45613789 4.60978802,3.51896715 C4.60978802,3.58179642 4.62535182,3.70290211 4.72953775,3.80643382 L7.73857027,6.7992013 L7.80110014,6.70987447 C7.8581369,6.62828748 7.92350488,6.55070699 7.99537303,6.47931837 L9.69722916,4.78657041 L6.43139388,1.53847935 L4.72953775,3.23122732 Z M3.52755437,4.59498667 C3.46438363,4.59498667 3.34280286,4.61037528 3.23852538,4.71408911 L1.5445427,6.39891512 L4.81028643,9.64709724 L6.50417755,7.96236228 C6.5758626,7.89115577 6.65395627,7.82605008 6.73607823,7.76904846 L6.82579897,7.70685659 L3.81676645,4.71408911 C3.71258052,4.61037528 3.59081665,4.59498667 3.52755437,4.59498667 L3.52755437,4.59498667 Z M4.81037798,11.1833184 C4.63954235,11.1833184 4.47886896,11.11712 4.35792906,10.9969249 L0.187379039,6.84891837 C0.0665306822,6.72872325 -2.74655355e-05,6.56891837 -2.74655355e-05,6.39900618 C-2.74655355e-05,6.22900293 0.0665306822,6.06919805 0.187379039,5.94909398 L2.33371909,3.81435577 C2.59107116,3.55848585 2.91562223,3.39494764 3.27239954,3.34149724 L3.33923234,3.33148098 L3.34930304,3.26500943 C3.40304394,2.91016065 3.56747094,2.5873639 3.82482301,2.33140293 L5.97894496,0.188833821 C6.09988487,0.0687297561 6.26055825,0.0024403252 6.43139388,0.0024403252 C6.60232107,0.0024403252 6.7629029,0.0687297561 6.88375125,0.188833821 L11.0543928,4.33674927 C11.1752412,4.45694439 11.2417993,4.61674927 11.2417993,4.78666146 C11.2417993,4.95666472 11.1752412,5.11646959 11.0543928,5.23657366 L8.90027087,7.37923382 C8.79599339,7.48276553 8.78052114,7.60387122 8.78052114,7.66679154 C8.78052114,7.72971187 8.79599339,7.85081756 8.90027087,7.95434927 C9.02102768,8.07463545 9.08767738,8.23444033 9.08767738,8.40435252 C9.08767738,8.57426472 9.02102768,8.73406959 8.90017932,8.85435577 L8.88919311,8.86555577 C8.77136596,8.98238179 8.61069258,9.04858016 8.43985695,9.04858016 C8.26892976,9.04858016 8.10825638,8.98238179 7.98740802,8.86227772 C7.88349675,8.75874602 7.76173287,8.74308423 7.69837904,8.74299317 C7.6350252,8.74299317 7.51344443,8.75847285 7.40916695,8.86218667 L5.26273535,10.9969249 C5.14188699,11.11712 4.98121361,11.1833184 4.81037798,11.1833184 L4.81037798,11.1833184 Z" id="Fill-8"></path>
                            <path d="M25.7391304,9.6 C25.4495171,9.6 25.2139479,9.36563486 25.2139479,9.0776685 L25.2139479,8.52236888 L24.6556173,8.52236888 C24.366004,8.52236888 24.1304348,8.28800374 24.1304348,8.00003738 C24.1304348,7.71199626 24.366004,7.47763112 24.6556173,7.47763112 L25.2139479,7.47763112 L25.2139479,6.92240626 C25.2139479,6.63436514 25.4495171,6.4 25.7391304,6.4 C26.0287438,6.4 26.2643881,6.63436514 26.2643881,6.92240626 L26.2643881,7.47763112 L26.8226436,7.47763112 C27.1122569,7.47763112 27.3478261,7.71199626 27.3478261,8.00003738 C27.3478261,8.28800374 27.1122569,8.52236888 26.8226436,8.52236888 L26.2643881,8.52236888 L26.2643881,9.0776685 C26.2643881,9.36563486 26.0287438,9.6 25.7391304,9.6" id="Fill-11"></path>
                            <path d="M35.3913406,5.80886984 C35.0635701,5.80886984 34.7969844,6.07400857 34.7969844,6.39992781 C34.7969844,6.72591924 35.0635701,6.99113016 35.3913406,6.99113016 C35.7191112,6.99113016 35.9856969,6.72591924 35.9856969,6.39992781 C35.9856969,6.07400857 35.7191112,5.80886984 35.3913406,5.80886984 M35.3913406,8 C34.5042699,8 33.7826087,7.28218362 33.7826087,6.39992781 C33.7826087,5.51774419 34.5042699,4.8 35.3913406,4.8 C35.8202874,4.8 36.2241216,4.96667719 36.5283037,5.26913603 C36.8324858,5.57173923 37,5.97330927 37,6.39992781 C37,7.28218362 36.2784113,8 35.3913406,8" id="Fill-13"></path>
                            <path d="M23.3240644,6.4 C22.8793893,6.4 22.517694,6.04867799 22.517694,5.61689371 L22.517694,2.66668534 L22.2879125,2.88812467 C22.1356866,3.03526528 21.933719,3.1161758 21.7191716,3.1161758 C21.5028931,3.1161758 21.2997713,3.0342567 21.1473146,2.88543513 C20.8337453,2.57927508 20.8351303,2.0826055 21.1504306,1.77790229 L22.7554388,0.227939065 C22.9076648,0.0809105236 23.1097478,0 23.3244106,0 C23.4310495,0 23.5351495,0.0201715987 23.6338251,0.0600665383 C23.9356225,0.181992646 24.1305501,0.4657398 24.1304347,0.783106286 L24.1304347,5.61689371 C24.1304347,6.04867799 23.7687395,6.4 23.3240644,6.4" id="Fill-15"></path>
                            <path d="M16.8913043,4.60573023 C15.4529393,4.60573023 14.2827508,5.76947814 14.2827508,7.20005029 C14.2827508,8.63062243 15.4529393,9.79437034 16.8913043,9.79437034 C18.3296694,9.79437034 19.4997568,8.63062243 19.4997568,7.20005029 C19.4997568,5.76947814 18.3296694,4.60573023 16.8913043,4.60573023 M16.8913043,11.2 C14.67369,11.2 12.8695652,9.40564977 12.8695652,7.20005029 C12.8695652,4.9944508 14.67369,3.2 16.8913043,3.2 C19.1089187,3.2 20.9130435,4.9944508 20.9130435,7.20005029 C20.9130435,9.40564977 19.1089187,11.2 16.8913043,11.2" id="Fill-17"></path>
                            <path d="M16.6766006,8 C16.3514863,8 16.0869565,7.6481975 16.0869565,7.21593491 L16.0869565,5.5841773 C16.0869565,5.1518025 16.3514863,4.8 16.6766006,4.8 C17.001715,4.8 17.2661604,5.1518025 17.2661604,5.5841773 L17.2661604,6.45711881 L17.3199945,6.4849488 C17.5481568,6.60322626 17.6956522,6.89005471 17.6956522,7.21593491 C17.6956522,7.6481975 17.4311224,8 17.1060081,8 L16.6766006,8 Z" id="Fill-19"></path>
                        </g>
                    </g>
                </g>
            </g>
        </g>
    </g>
</svg>